# xmcd
#
# Track frame offsets: 
#        150
#        20636
#        35577
#
# Disc length: 717 seconds
#
# Revision: 1
# Processed by: cddbd v1.5.2PL0 Copyright (c) Steve Scherf et al.
# Submitted via: ExactAudioCopy v0.95b4
#
DISCID=1f02cb03
DTITLE=Eric Bling - 3 Road Songs
DYEAR=2005
DGENRE=Blues
TTITLE0=The Gran Rail Road
TTITLE1=Five Days
TTITLE2=Temperate Feelin' Here
EXTD=YEAR: 1996
EXTT0=
EXTT1=
EXTT2=
PLAYORDER=
